<svg xmlns="http://www.w3.org/2000/svg" width="20" height="20" fill="currentColor" viewBox="0 0 20 20">
  <mask id="a" width="20" height="20" x="0" y="0" maskUnits="userSpaceOnUse" style="mask-type:alpha">
    <path d="M0 0h20v20H0z"/>
  </mask>
  <g mask="url(#a)">
    <path d="M16.35.853a1.75 1.75 0 0 1 2.4 1.624v11.046a1.75 1.75 0 0 1-2.4 1.625l-5.822-2.329.804 2.678a1.75 1.75 0 0 1-1.676 2.253H7.72a1.75 1.75 0 0 1-1.66-1.196l-1.6-4.804H4A2.75 2.75 0 0 1 1.25 9V7A2.75 2.75 0 0 1 4 4.25h3.857L16.35.853ZM7.482 16.079a.25.25 0 0 0 .237.171h1.936a.25.25 0 0 0 .24-.322L8.78 12.216l-.018-.075-.002-.03-.906-.36H6.041l1.442 4.328Zm9.424-13.834-1.157.462v10.585l1.157.463a.25.25 0 0 0 .343-.232V2.478a.25.25 0 0 0-.343-.232ZM8.75 5.507V8a.75.75 0 0 1-1.5 0V5.75H4c-.69 0-1.25.56-1.25 1.25v2c0 .69.56 1.25 1.25 1.25h4a.75.75 0 0 1 .278.054l5.972 2.387V3.309l-5.5 2.199Z"/>
  </g>
</svg>
