<svg xmlns="http://www.w3.org/2000/svg" width="20" height="20" fill="currentColor" viewBox="0 0 20 20">
  <mask id="a" width="20" height="20" x="0" y="0" maskUnits="userSpaceOnUse" style="mask-type:alpha">
    <path d="M0 0h20v20H0z"/>
  </mask>
  <g mask="url(#a)">
    <path d="M15.182 1.272a.75.75 0 0 1 .56.834l-.015.075-.274 1.097A3.75 3.75 0 0 1 18.75 7v6A3.75 3.75 0 0 1 15 16.75H5A3.75 3.75 0 0 1 1.25 13V7a3.75 3.75 0 0 1 3.296-3.722l-.274-1.097-.014-.075a.75.75 0 0 1 1.447-.361l.023.073.357 1.432h7.83l.358-1.432.022-.073a.75.75 0 0 1 .887-.473ZM5 4.75A2.25 2.25 0 0 0 2.75 7v6A2.25 2.25 0 0 0 5 15.25h10A2.25 2.25 0 0 0 17.25 13V7A2.25 2.25 0 0 0 15 4.75H5Zm7.735 6.549a.75.75 0 0 1 .667 1.334l-.067.038-1 .5a.75.75 0 0 1-.335.079H8a.75.75 0 0 1-.335-.08l-1-.5-.067-.037a.75.75 0 0 1 .667-1.334l.07.03.842.42h3.646l.842-.42.07-.03ZM7 6.999A1 1 0 1 1 7 9a1 1 0 0 1 0-2Zm6 0A1 1 0 1 1 13 9a1 1 0 0 1 0-2Z"/>
  </g>
</svg>
