<svg width="18" height="20" viewBox="0 0 18 20" fill="none" xmlns="http://www.w3.org/2000/svg">
<mask id="mask0_322_2222" style="mask-type:alpha" maskUnits="userSpaceOnUse" x="0" y="0" width="18" height="20">
<rect y="0.5" width="18" height="19" fill="#A8ADC8"/>
</mask>
<g mask="url(#mask0_322_2222)">
<path d="M13.3477 3.96362C13.7317 3.6327 14.3117 3.64071 14.6876 3.99682C15.0633 4.35293 15.1026 4.93154 14.793 5.33276L14.7256 5.40991L10.376 9.99975L14.7256 14.5906C15.1053 14.9915 15.0884 15.6239 14.6876 16.0037C14.2867 16.3834 13.6543 16.3662 13.2745 15.9656L9.00006 11.4529L4.72565 15.9656C4.34584 16.3663 3.71344 16.3833 3.31256 16.0037C2.91165 15.6238 2.89471 14.9915 3.27448 14.5906L7.62311 9.99975L3.27448 5.40991L3.20709 5.33276C2.89748 4.93151 2.93678 4.35293 3.31256 3.99682C3.68846 3.64071 4.26843 3.6327 4.6524 3.96362L4.72565 4.03491L9.00006 8.54663L13.2745 4.03491L13.3477 3.96362Z" fill="#92A6C2"/>
</g>
</svg>
