<svg width="32" height="32" viewBox="0 0 32 32" fill="none" xmlns="http://www.w3.org/2000/svg">
<path d="M20.2929 10.293C20.6834 9.90243 21.3164 9.90243 21.707 10.293C22.0974 10.6835 22.0975 11.3165 21.707 11.707L17.414 16L21.707 20.293C22.0974 20.6835 22.0975 21.3165 21.707 21.707C21.3165 22.0975 20.6834 22.0975 20.2929 21.707L15.9999 17.414L11.707 21.707C11.3165 22.0975 10.6834 22.0975 10.2929 21.707C9.90237 21.3165 9.90237 20.6835 10.2929 20.293L14.5859 16L10.2929 11.707C9.90237 11.3165 9.90237 10.6835 10.2929 10.293C10.6834 9.90243 11.3164 9.90243 11.707 10.293L15.9999 14.5859L20.2929 10.293Z" fill="#15152A"/>
</svg>
