<svg xmlns="http://www.w3.org/2000/svg" width="20" height="20" fill="currentColor" viewBox="0 0 20 20">
  <mask id="a" width="20" height="20" x="0" y="0" maskUnits="userSpaceOnUse" style="mask-type:alpha">
    <path d="M0 0h20v20H0z"/>
  </mask>
  <g mask="url(#a)">
    <path d="M16 2.25A2.75 2.75 0 0 1 18.75 5v10A2.75 2.75 0 0 1 16 17.75H4A2.75 2.75 0 0 1 1.25 15V5A2.75 2.75 0 0 1 4 2.25h12ZM2.75 13.31V15c0 .69.56 1.25 1.25 1.25h2.69l3.75-3.75L7 9.06l-4.25 4.25Zm6.06 2.94H16c.69 0 1.25-.56 1.25-1.25v-.69L14 11.06l-5.19 5.19ZM4 3.75c-.69 0-1.25.56-1.25 1.25v6.19l3.72-3.72.056-.052a.75.75 0 0 1 1.004.052l3.97 3.97 1.97-1.97.056-.052a.75.75 0 0 1 1.004.052l2.72 2.72V5c0-.69-.56-1.25-1.25-1.25h-1.339a3.25 3.25 0 1 1-6.322 0H4Zm5.92 0a1.75 1.75 0 1 0 3.161 0H9.92Z"/>
  </g>
</svg>
