<svg width="1000" height="1000" viewBox="0 0 1000 1000" fill="none" xmlns="http://www.w3.org/2000/svg">
<rect width="1000" height="1000" fill="#25A4E3"/>
<path fill-rule="evenodd" clip-rule="evenodd" d="M483.021 326.44V354.738H375.489V326.44H483.021ZM483.021 380.206V408.504H375.489V380.206H483.021ZM483.021 462.269V433.972H375.489V462.269H483.021ZM267.957 354.738V462.27H304.745V354.738H341.532V326.44L304.745 326.44H267.957L234 326.44V354.738H267.957ZM516.979 326.44H550.936V433.972H624.511V462.269L550.936 462.269L516.979 462.269L516.979 326.44ZM766 326.44V354.738H712.234H658.468V326.44H766ZM766 380.206V408.504H658.468V380.206H766ZM766 462.269V433.972H658.468V462.269H766Z" fill="white"/>
<path fill-rule="evenodd" clip-rule="evenodd" d="M449.064 583.007C449.064 573.39 441.983 566.028 432.085 566.028H375.489V537.73H437.745C463.48 537.73 483.021 558.001 483.021 583.007C483.021 602.112 471.614 618.453 454.754 625.101L483.021 673.56H443.404L416.993 628.284H409.447V673.56H375.489L375.489 628.284L375.489 599.986H409.447L432.085 599.986C441.983 599.986 449.064 592.625 449.064 583.007ZM270.787 566.028V673.56H304.745V566.028H341.532V537.73L304.745 537.73H270.787L234 537.73V566.028H270.787ZM590.005 537.73H550.388L505.66 673.56H545.277L590.005 537.73ZM590.553 673.56L580.583 643.683L600.533 583.1L630.17 673.56H590.553ZM658.468 537.73H692.426H766V566.028H692.426V591.496H766V619.794H692.426V673.56H658.468L658.468 619.794L658.468 591.496V566.028V537.73Z" fill="white"/>
</svg>
