<svg xmlns="http://www.w3.org/2000/svg" width="20" height="20" fill="currentColor" viewBox="0 0 20 20">
  <mask id="a" width="20" height="20" x="0" y="0" maskUnits="userSpaceOnUse" style="mask-type:alpha">
    <path d="M0 0h20v20H0z"/>
  </mask>
  <g mask="url(#a)">
    <path d="M10 .25a3.75 3.75 0 0 1 2.66 6.392l2.79 4.648a3.75 3.75 0 1 1-3.124 4.46H7.674a3.751 3.751 0 1 1-3.125-4.46l2.789-4.648A3.75 3.75 0 0 1 10 .25Zm-6 12.5a2.25 2.25 0 1 0 0 4.5 2.25 2.25 0 0 0 0-4.5Zm12 0a2.25 2.25 0 1 0 0 4.5 2.25 2.25 0 0 0 0-4.5Zm-4.59-5.275a3.738 3.738 0 0 1-2.82 0l-2.607 4.343a3.752 3.752 0 0 1 1.692 2.432h4.65a3.753 3.753 0 0 1 1.69-2.432L11.41 7.475ZM10 1.75a2.25 2.25 0 1 0 0 4.5 2.25 2.25 0 0 0 0-4.5Z"/>
  </g>
</svg>
