<svg width="32" height="32" viewBox="0 0 32 32" fill="none" xmlns="http://www.w3.org/2000/svg">
<path d="M15.9628 0C7.14263 0.0212483 0 7.17663 0 16C0 24.8361 7.16282 32 16 32C24.8372 32 32 24.8372 32 16C32 7.17663 24.8574 0.0212483 16.0393 0H16.0372C16.0124 0 15.9876 0 15.9628 0Z" fill="#2288EE"/>
<path d="M16 9.5C20.9706 9.5 25 15 25 16C25 17 20.9706 22.5 16 22.5C11.0294 22.5 7 17 7 16C7 15 11.0294 9.5 16 9.5ZM16 13C14.3431 13 13 14.3431 13 16C13 17.6569 14.3431 19 16 19C17.6569 19 19 17.6569 19 16C19 14.3431 17.6569 13 16 13Z" fill="white"/>
</svg>
