<svg width="194" height="24" viewBox="0 0 194 24" fill="none" xmlns="http://www.w3.org/2000/svg">
<path d="M19 4.99999H12.5V24H6V4.99999H0V-1.14441e-05H19V4.99999ZM44 24H25V19H44V24ZM56 19H69V24H50V-1.14441e-05H56V19ZM94 24H75V19H94V24ZM119 4.99999H112.5V24H106.5V4.99999H100V-1.14441e-05H119V4.99999ZM136 -1.14441e-05C140.547 -1.14441e-05 144 3.58171 144 7.99999C144 11.3757 141.983 14.2599 139.004 15.4346L144 24H137L132.333 16H131V24H125V11H135C136.749 11 138 9.69933 138 7.99999C138 6.30065 136.749 4.99999 135 4.99999H125V-1.14441e-05H136ZM155 24H148L155.903 -1.14441e-05H162.903L155 24ZM170 24H163L161.238 18.7207L164.764 8.01659L170 24ZM194 4.99999H181V9.49999H194V14.5H181V24H175V-1.14441e-05H194V4.99999ZM44 14.5H25V9.49999H44V14.5ZM94 14.5H75V9.49999H94V14.5ZM44 4.99999H25V-1.14441e-05H44V4.99999ZM94 4.99999H75V-1.14441e-05H94V4.99999Z" fill="#25A4E3"/>
</svg>
