<svg width="144" height="32" viewBox="0 0 144 32" fill="none" xmlns="http://www.w3.org/2000/svg">
<path d="M15.9628 0C7.14263 0.0212483 0 7.17663 0 16C0 24.8361 7.16282 32 16 32C24.8372 32 32 24.8372 32 16C32 7.17663 24.8574 0.0212483 16.0393 0H16.0372C16.0124 0 15.9876 0 15.9628 0Z" fill="#2288EE"/>
<path d="M16.0002 9.5C20.9708 9.5 25.0002 15 25.0002 16C25.0002 17 20.9708 22.5 16.0002 22.5C11.0297 22.5 7.00021 17 7.00021 16C7.00021 15 11.0297 9.5 16.0002 9.5ZM16.0002 13C14.3434 13 13.0002 14.3431 13.0002 16C13.0002 17.6569 14.3434 19 16.0002 19C17.6571 19 19.0002 17.6569 19.0002 16C19.0002 14.3431 17.6571 13 16.0002 13Z" fill="white"/>
<path d="M58 9C61.1622 9 63.796 11.2583 64.3789 14.25H61C60.5101 13.0757 59.3519 12.25 58 12.25C56.2051 12.25 54.75 13.7051 54.75 15.5V18.5C54.75 20.2949 56.2051 21.75 58 21.75C59.6249 21.75 60.9714 20.5576 61.2119 19H58V16.25H64.5V18.5C64.5 22.0899 61.5899 25 58 25C54.4101 25 51.5 22.0899 51.5 18.5V15.5C51.5 11.9101 54.4101 9 58 9ZM50.5 12.75H45.75V24.75H42.25V12.75H37.5V9.25H50.5V12.75ZM72 13.8994L75 9.25H79L74 17L79 24.75H75L72 20.0996L69 24.75H65L70 17L65 9.25H69L72 13.8994Z" fill="#15152A"/>
<rect x="87" width="57" height="32" rx="10" fill="#92A6C2" fill-opacity="0.2"/>
<path d="M105.339 9.56818L106.077 11.1477C105.831 11.3523 105.558 11.5038 105.259 11.6023C104.96 11.697 104.602 11.7595 104.185 11.7898C103.772 11.8201 103.269 11.8409 102.674 11.8523C102 11.8598 101.451 11.9678 101.026 12.1761C100.602 12.3845 100.28 12.7121 100.06 13.1591C99.8407 13.6023 99.6967 14.1818 99.6286 14.8977H99.7138C99.9751 14.3636 100.343 13.9508 100.816 13.6591C101.293 13.3674 101.882 13.2216 102.583 13.2216C103.326 13.2216 103.975 13.3845 104.532 13.7102C105.093 14.036 105.528 14.5038 105.839 15.1136C106.149 15.7235 106.305 16.4545 106.305 17.3068C106.305 18.1932 106.13 18.964 105.782 19.6193C105.437 20.2708 104.947 20.7765 104.31 21.1364C103.674 21.4924 102.916 21.6705 102.038 21.6705C101.155 21.6705 100.394 21.4848 99.7536 21.1136C99.1172 20.7424 98.6248 20.1951 98.2763 19.4716C97.9316 18.7481 97.7592 17.858 97.7592 16.8011V16.0852C97.7592 13.983 98.1683 12.4242 98.9865 11.4091C99.8047 10.3939 101.007 9.87879 102.594 9.86364C103.026 9.85606 103.416 9.85417 103.765 9.85795C104.113 9.86174 104.418 9.8447 104.68 9.80682C104.945 9.76894 105.165 9.68939 105.339 9.56818ZM102.049 19.7955C102.42 19.7955 102.738 19.6989 103.004 19.5057C103.272 19.3125 103.479 19.036 103.623 18.6761C103.771 18.3163 103.844 17.8864 103.844 17.3864C103.844 16.8902 103.771 16.4697 103.623 16.125C103.479 15.7765 103.272 15.5114 103.004 15.3295C102.735 15.1477 102.413 15.0568 102.038 15.0568C101.757 15.0568 101.505 15.108 101.282 15.2102C101.058 15.3125 100.867 15.464 100.708 15.6648C100.553 15.8617 100.432 16.1061 100.344 16.3977C100.261 16.6856 100.219 17.0152 100.219 17.3864C100.219 18.1326 100.38 18.7216 100.702 19.1534C101.028 19.5814 101.477 19.7955 102.049 19.7955ZM107.4 21.5L107.388 19.5795H107.678C107.883 19.5795 108.059 19.5303 108.207 19.4318C108.358 19.3295 108.483 19.1648 108.582 18.9375C108.68 18.7102 108.758 18.4091 108.815 18.0341C108.871 17.6553 108.909 17.1894 108.928 16.6364L109.07 12.7727H115.707V21.5H113.4V14.6761H111.246L111.11 17.3409C111.076 18.072 110.987 18.7008 110.843 19.2273C110.703 19.7538 110.508 20.1856 110.258 20.5227C110.008 20.8561 109.707 21.1023 109.354 21.2614C109.002 21.4205 108.593 21.5 108.127 21.5H107.4ZM121.526 21.6705C120.644 21.6705 119.88 21.483 119.237 21.108C118.596 20.7292 118.102 20.2027 117.754 19.5284C117.405 18.8504 117.231 18.0644 117.231 17.1705C117.231 16.2689 117.405 15.4811 117.754 14.8068C118.102 14.1288 118.596 13.6023 119.237 13.2273C119.88 12.8485 120.644 12.6591 121.526 12.6591C122.409 12.6591 123.17 12.8485 123.81 13.2273C124.454 13.6023 124.951 14.1288 125.299 14.8068C125.647 15.4811 125.822 16.2689 125.822 17.1705C125.822 18.0644 125.647 18.8504 125.299 19.5284C124.951 20.2027 124.454 20.7292 123.81 21.108C123.17 21.483 122.409 21.6705 121.526 21.6705ZM121.538 19.7955C121.939 19.7955 122.274 19.6818 122.543 19.4545C122.812 19.2235 123.015 18.9091 123.151 18.5114C123.291 18.1136 123.362 17.661 123.362 17.1534C123.362 16.6458 123.291 16.1932 123.151 15.7955C123.015 15.3977 122.812 15.0833 122.543 14.8523C122.274 14.6212 121.939 14.5057 121.538 14.5057C121.132 14.5057 120.791 14.6212 120.515 14.8523C120.242 15.0833 120.036 15.3977 119.896 15.7955C119.759 16.1932 119.691 16.6458 119.691 17.1534C119.691 17.661 119.759 18.1136 119.896 18.5114C120.036 18.9091 120.242 19.2235 120.515 19.4545C120.791 19.6818 121.132 19.7955 121.538 19.7955ZM133.373 12.7727V14.6761H129.748V21.5H127.396V12.7727H133.373Z" fill="#15152A"/>
</svg>
