<svg xmlns="http://www.w3.org/2000/svg" width="20" height="20" fill="currentColor" viewBox="0 0 20 20">
  <mask id="a" width="20" height="20" x="0" y="0" maskUnits="userSpaceOnUse" style="mask-type:alpha">
    <path d="M0 0h20v20H0z"/>
  </mask>
  <g mask="url(#a)">
    <path d="M10 .25c4.242 0 7.444 4.147 7.727 9.045l.091-.023a.75.75 0 0 1 .932.728c0 5.3-3.837 9.75-8.75 9.75S1.25 15.3 1.25 10l.005-.088a.75.75 0 0 1 .951-.633l.066.019C2.554 4.398 5.757.25 10 .25Zm6.328 10.94L14.45 12.6a.75.75 0 0 1-.866.024l-1.044-.696-2.071 1.658a.75.75 0 0 1-.803.085l-.107-.065L7.2 11.892l-1.328.76a.75.75 0 0 1-.766-.013l-.094-.07-1.627-1.394-.58-.166c.44 4.145 3.56 7.241 7.195 7.241 3.645 0 6.772-3.114 7.198-7.277l-.87.217ZM10 1.75c-3.223 0-6.132 3.37-6.245 7.972l.201.057.076.027c.075.03.145.072.206.125l1.348 1.155 1.292-.737.099-.047a.75.75 0 0 1 .714.092l2.287 1.662 2.053-1.642.1-.067a.75.75 0 0 1 .785.029l1.059.705 1.575-1.18.128-.078a.752.752 0 0 1 .14-.05l.425-.107C16.108 5.094 13.21 1.75 10 1.75Zm-.384 4.71a.5.5 0 0 1 .768 0l1.676 2.012a.5.5 0 0 1-.199.784l-1.676.67a.5.5 0 0 1-.37 0l-1.676-.67a.5.5 0 0 1-.199-.784L9.616 6.46ZM7 5a1 1 0 1 1 0 2 1 1 0 0 1 0-2Zm6 0a1 1 0 1 1 0 2 1 1 0 0 1 0-2Z"/>
  </g>
</svg>
