<svg xmlns="http://www.w3.org/2000/svg" width="20" height="20" fill="currentColor" viewBox="0 0 20 20">
  <mask id="a" width="20" height="20" x="0" y="0" maskUnits="userSpaceOnUse" style="mask-type:alpha">
    <path d="M0 0h20v20H0z"/>
  </mask>
  <g mask="url(#a)">
    <path d="M10 3.25c2.49 0 4.667 1.42 6.175 2.862.763.73 1.385 1.494 1.82 2.145.217.325.395.631.522.901.11.237.233.548.233.842 0 .294-.122.605-.233.842a7.1 7.1 0 0 1-.522.901 13.21 13.21 0 0 1-1.82 2.145C14.667 15.33 12.49 16.75 10 16.75c-2.49 0-4.667-1.42-6.175-2.862a13.215 13.215 0 0 1-1.82-2.145 7.102 7.102 0 0 1-.522-.901c-.097-.208-.202-.472-.227-.732L1.25 10l.006-.11c.025-.26.13-.524.227-.732.127-.27.305-.576.522-.901a13.211 13.211 0 0 1 1.82-2.145C5.333 4.67 7.51 3.25 10 3.25Zm0 1.5c-1.928 0-3.75 1.119-5.139 2.446A11.713 11.713 0 0 0 3.252 9.09c-.188.28-.324.522-.41.706-.05.105-.073.171-.083.204.01.033.033.099.083.204.086.184.222.425.41.706.374.56.925 1.24 1.61 1.894C6.248 14.13 8.071 15.25 10 15.25s3.75-1.119 5.139-2.446a11.713 11.713 0 0 0 1.609-1.894c.188-.28.324-.522.41-.706A1.45 1.45 0 0 0 17.24 10c-.01-.033-.033-.1-.082-.204a5.62 5.62 0 0 0-.41-.706c-.374-.56-.925-1.24-1.61-1.894C13.752 5.87 11.929 4.75 10 4.75Zm0 1.75a3.5 3.5 0 1 1 0 7 3.5 3.5 0 0 1 0-7ZM10 8a2 2 0 1 0 0 4 2 2 0 0 0 0-4Z"/>
  </g>
</svg>
