<svg width="16" height="16" viewBox="0 0 16 16" fill="none" xmlns="http://www.w3.org/2000/svg">
<path d="M8.99992 0C12.8659 4.08454e-05 15.9999 3.13403 15.9999 7C15.9999 10.866 12.8659 14 8.99992 14C7.42308 14 5.96808 13.4784 4.79778 12.5986C4.76977 12.6359 4.74085 12.6731 4.70696 12.707L1.70696 15.707C1.31644 16.0975 0.683421 16.0975 0.292893 15.707C-0.0976311 15.3165 -0.0976311 14.6835 0.292893 14.293L3.29289 11.293C3.32675 11.2591 3.36313 11.2292 3.40032 11.2012C2.521 10.031 1.99992 8.5764 1.99992 7C1.99992 3.13401 5.13393 0 8.99992 0ZM8.99992 2C6.2385 2 3.99992 4.23858 3.99992 7C3.99992 9.76142 6.2385 12 8.99992 12C11.7613 12 13.9999 9.7614 13.9999 7C13.9999 4.2386 11.7613 2.00004 8.99992 2Z" fill="#15152A"/>
</svg>
