<svg width="18" height="18" viewBox="0 0 18 18" fill="none" xmlns="http://www.w3.org/2000/svg">
<mask id="mask0_322_2216" style="mask-type:alpha" maskUnits="userSpaceOnUse" x="0" y="0" width="18" height="18">
<rect width="18" height="18" fill="#A8ADC8"/>
</mask>
<g mask="url(#mask0_322_2216)">
<path d="M9.99992 1C13.8659 1.00004 16.9999 4.13403 16.9999 8C16.9999 11.866 13.8659 15 9.99992 15C8.42308 15 6.96808 14.4784 5.79778 13.5986C5.76977 13.6359 5.74085 13.6731 5.70696 13.707L2.70696 16.707C2.31644 17.0975 1.68342 17.0975 1.29289 16.707C0.902369 16.3165 0.902369 15.6835 1.29289 15.293L4.29289 12.293C4.32675 12.2591 4.36313 12.2292 4.40032 12.2012C3.521 11.031 2.99992 9.5764 2.99992 8C2.99992 4.13401 6.13393 1 9.99992 1ZM9.99992 3C7.2385 3 4.99992 5.23858 4.99992 8C4.99992 10.7614 7.2385 13 9.99992 13C12.7613 13 14.9999 10.7614 14.9999 8C14.9999 5.2386 12.7613 3.00004 9.99992 3Z" fill="#92A6C2"/>
</g>
</svg>
