<svg width="32" height="32" viewBox="0 0 32 32" fill="none" xmlns="http://www.w3.org/2000/svg">
<path d="M23.4934 10.215C23.2578 12.6747 22.2384 18.6435 21.7196 21.3983C21.5002 22.564 21.0681 22.9549 20.6498 22.9931C19.7408 23.0762 19.0504 22.3961 18.1699 21.8226C16.7921 20.9252 16.0138 20.3665 14.6763 19.4908C13.1308 18.4788 14.1327 17.9227 15.0135 17.0133C15.244 16.7754 19.2495 13.1552 19.327 12.8268C19.3367 12.7857 19.346 12.6324 19.2542 12.5519C19.1624 12.4713 19.0276 12.4986 18.93 12.5205C18.7919 12.5517 16.5908 13.9973 12.3269 16.8572C11.7022 17.2835 11.1363 17.4912 10.6293 17.4803C10.0703 17.4683 8.99514 17.1663 8.19581 16.9081C7.21545 16.5915 6.43626 16.4241 6.50412 15.8863C6.53947 15.6061 6.92767 15.3197 7.66874 15.027C12.2323 13.0513 15.2755 11.7488 16.7981 11.1194C21.1455 9.32261 22.0488 9.01051 22.6376 9.0001C22.7671 8.99797 23.0567 9.02983 23.2442 9.18105C23.369 9.28878 23.4485 9.4391 23.4671 9.60229C23.4988 9.80492 23.5077 10.0104 23.4934 10.215Z" fill="#15152A"/>
</svg>
